<?xml version="1.0" standalone="no"?>
<!DOCTYPE svg PUBLIC "-//W3C//DTD SVG 20010904//EN"
 "http://www.w3.org/TR/2001/REC-SVG-20010904/DTD/svg10.dtd">
<svg version="1.0" xmlns="http://www.w3.org/2000/svg"
 width="40dp" height="40dp" viewBox="0 0 893.000000 893.000000"
 preserveAspectRatio="xMidYMid meet">

<g transform="translate(0.000000,893.000000) scale(0.100000,-0.100000)"
fill="#000000" stroke="none">
<path d="M4325 8924 c-683 -26 -1339 -199 -1925 -506 -1286 -675 -2154 -1912
-2354 -3353 -39 -282 -51 -700 -27 -965 65 -717 278 -1367 643 -1965 471 -769
1184 -1393 2003 -1751 115 -50 474 -184 493 -184 4 0 -12 12 -36 26 -23 14
-47 22 -54 18 -6 -4 -8 -3 -5 3 3 5 -31 27 -76 49 -45 21 -88 45 -96 52 -8 8
-24 11 -40 7 -18 -4 -22 -3 -12 4 11 7 9 11 -8 20 -12 7 -27 9 -33 5 -6 -4 -8
-3 -5 3 6 10 -27 27 -45 24 -5 -1 -8 4 -8 10 0 6 -9 9 -19 6 -10 -2 -25 0 -32
5 -11 8 -10 8 4 4 23 -7 13 10 -15 25 -16 9 -19 8 -13 -2 9 -14 -3 -7 -50 26
-56 41 -153 87 -167 79 -7 -4 -10 -4 -7 0 9 10 -72 87 -84 79 -6 -3 -7 -1 -3
5 3 6 -6 20 -21 32 -15 12 -56 48 -91 81 -35 32 -69 56 -74 52 -6 -3 -8 -1 -5
4 9 14 -80 96 -95 87 -7 -4 -8 -3 -4 4 4 7 -11 28 -36 49 -23 21 -55 50 -71
65 -16 15 -33 25 -38 23 -4 -3 -11 0 -15 6 -5 8 -2 10 7 4 8 -4 -26 31 -76 79
-49 47 -95 84 -102 81 -7 -2 -10 2 -6 11 5 13 -4 17 -37 15 -12 0 -12 1 -1 5
9 5 -5 24 -45 65 -31 32 -61 56 -66 53 -5 -3 -7 -2 -6 3 4 13 -22 54 -31 48
-10 -5 -23 19 -26 49 -1 11 -7 22 -13 24 -7 2 -12 8 -12 13 0 15 -46 80 -52
73 -3 -3 -5 3 -4 13 0 10 -5 17 -12 15 -8 -1 -11 1 -8 6 3 5 -5 23 -18 41 -16
22 -26 28 -30 19 -3 -7 -4 -4 -1 7 5 22 -48 109 -59 97 -4 -3 -4 1 0 11 3 9 2
17 -2 17 -5 0 -20 18 -33 40 -14 21 -29 36 -34 33 -6 -3 -7 -1 -3 5 4 6 -6 30
-21 53 -15 23 -35 55 -43 71 -9 16 -20 25 -24 21 -5 -4 -5 6 -2 23 5 22 2 36
-8 47 -9 9 -16 21 -16 27 0 21 -31 71 -41 65 -5 -4 -3 -15 6 -28 8 -12 15 -26
15 -31 0 -5 -11 6 -23 25 -13 19 -29 33 -35 32 -11 -3 -10 17 3 50 4 10 3 17
-4 17 -6 0 -10 13 -9 29 2 23 5 27 14 20 9 -7 19 -7 33 0 11 6 27 11 36 11 27
0 85 31 79 42 -4 7 0 7 12 0 20 -10 80 8 68 20 -3 4 4 4 17 1 14 -4 20 -2 16
4 -5 7 1 9 14 6 15 -4 22 0 26 16 3 11 9 21 13 21 4 0 6 11 5 25 -2 14 1 22 6
19 5 -3 25 10 43 30 18 20 40 36 50 36 10 0 14 5 11 11 -4 6 -1 10 6 8 31 -4
41 1 34 19 -5 14 -4 15 6 5 18 -18 29 -16 23 5 -5 14 -4 14 4 3 8 -12 14 -12
25 -3 7 7 17 9 20 5 4 -3 7 -1 7 5 0 7 7 12 15 12 24 0 60 20 74 41 10 17 10
24 -1 37 -12 15 -11 16 5 3 10 -8 16 -20 13 -28 -3 -7 -1 -13 4 -13 6 0 10 4
10 10 0 5 11 12 25 16 14 3 22 11 18 17 -4 6 0 8 10 4 10 -3 17 -2 17 4 0 6 5
7 10 4 6 -3 10 -1 10 4 0 6 3 10 7 9 15 -3 43 14 37 23 -3 5 4 9 16 9 12 0 18
4 15 10 -4 6 -3 9 2 8 15 -4 54 23 47 34 -5 7 -2 8 5 4 7 -5 20 -1 29 7 9 7
26 17 36 21 10 3 16 9 12 13 -6 6 32 38 47 38 4 0 11 6 16 13 5 8 12 13 17 12
5 -1 10 4 13 11 2 7 -1 9 -9 4 -8 -5 -11 -4 -6 3 4 6 13 9 22 5 8 -3 24 3 34
12 16 15 18 21 8 34 -10 13 -10 14 2 4 18 -16 54 2 46 24 -4 11 -2 13 9 10 8
-4 17 -1 21 5 5 7 2 8 -7 3 -8 -5 -3 5 11 21 14 16 27 31 29 34 2 3 1 -4 -2
-15 -7 -19 -7 -19 8 -1 8 10 12 23 8 29 -3 6 -1 7 4 4 10 -7 34 15 47 43 4 8
-1 5 -10 -8 -17 -23 -34 -29 -34 -11 0 5 5 7 10 4 6 -3 10 -3 10 2 0 4 9 19
20 33 16 20 19 21 13 5 -6 -18 -5 -18 10 -6 13 10 15 17 6 27 -7 9 -8 14 -1
14 6 0 12 -5 14 -12 3 -7 11 2 19 20 7 18 17 32 22 32 4 0 3 10 -3 23 -10 19
-10 20 3 5 12 -16 16 -15 40 14 15 16 27 34 27 40 0 5 4 7 8 4 5 -3 15 6 22
19 7 14 19 25 26 25 11 0 29 27 26 41 -1 4 6 6 16 5 9 0 16 5 15 12 -2 6 4 12
12 12 7 0 18 6 22 14 7 13 12 16 28 16 3 0 0 10 -6 23 -11 20 -11 21 5 8 14
-12 19 -12 29 -1 8 8 8 11 1 7 -7 -4 -17 0 -23 7 -9 11 -9 14 1 12 7 -1 18 -5
23 -8 16 -10 39 8 30 22 -5 9 -4 11 4 6 13 -9 44 12 36 24 -3 4 9 18 25 31 32
26 37 47 18 69 -11 12 -10 12 4 1 15 -11 20 -10 34 3 18 18 31 132 14 121 -5
-3 -7 1 -4 9 3 8 0 25 -8 38 -7 13 -13 32 -14 43 -3 64 -5 76 -13 71 -5 -4 -7
2 -5 12 3 9 -2 49 -11 87 -9 39 -17 80 -17 93 0 12 -4 22 -9 22 -5 0 -9 -5 -9
-12 0 -6 -3 -8 -6 -5 -4 4 -1 13 6 22 8 10 9 15 2 15 -6 0 -9 7 -6 15 7 18 -7
20 -26 3 -11 -10 -11 -9 0 6 14 17 13 18 -8 12 -14 -5 -22 -3 -22 5 0 8 -13
10 -40 6 -30 -4 -46 0 -64 14 -13 10 -25 16 -28 14 -9 -9 -69 55 -62 67 5 8 2
9 -9 5 -9 -3 -19 -1 -23 5 -4 7 -3 8 4 4 8 -5 11 -1 8 11 -9 39 -19 63 -25 59
-3 -2 -7 10 -8 27 -1 17 -8 34 -14 38 -6 4 -9 11 -5 17 3 5 2 23 -3 38 -5 16
-15 50 -22 77 -7 26 -17 47 -22 47 -4 0 -6 4 -2 9 7 13 -26 82 -37 75 -4 -3
-8 0 -8 6 0 6 -5 8 -12 4 -7 -4 -8 -3 -4 5 4 6 12 9 17 6 5 -3 6 1 3 9 -3 9
-10 14 -15 11 -9 -6 -33 32 -35 55 -1 8 -2 23 -3 33 0 10 -5 16 -10 13 -5 -3
-8 33 -7 83 1 76 -1 88 -13 78 -8 -7 -6 1 5 18 10 16 14 26 7 22 -11 -7 -26
21 -27 52 -1 8 -7 16 -15 19 -9 3 -12 0 -9 -10 4 -9 0 -15 -8 -15 -18 0 -18
11 1 27 14 12 14 15 0 30 -8 9 -15 22 -15 29 0 7 -4 9 -10 6 -9 -6 -12 1 -9
22 0 3 -6 10 -15 15 -9 5 -14 13 -11 17 2 5 -6 29 -19 54 -14 25 -22 48 -19
51 4 3 2 6 -4 6 -6 0 -11 6 -10 13 0 6 -1 23 -2 37 -1 20 -3 22 -12 10 -8 -12
-9 -11 -4 6 3 12 1 43 -5 68 -25 114 -39 390 -25 521 4 35 2 45 -5 35 -5 -8
-10 -10 -10 -4 0 6 6 17 14 23 8 6 17 37 21 69 3 31 15 93 26 137 27 110 33
154 18 135 -9 -13 -10 -12 -5 3 3 10 6 21 6 23 0 3 4 3 9 0 11 -7 33 53 24 67
-3 6 -1 7 6 3 8 -5 10 0 7 18 -3 14 -1 26 3 26 11 0 32 50 26 61 -4 5 -1 9 4
9 6 0 11 7 11 15 0 14 21 67 45 115 7 14 13 27 13 30 -1 3 9 24 21 47 11 23
21 49 21 56 0 8 7 20 15 27 9 7 13 15 10 18 -3 3 3 14 12 25 10 10 18 26 18
35 0 9 5 17 12 17 6 0 22 13 34 29 18 23 20 28 7 23 -12 -4 -15 -2 -12 8 3 7
13 12 22 11 17 -3 49 32 44 47 -1 4 2 7 8 7 5 0 7 8 4 18 -5 14 -4 15 5 2 10
-13 15 -8 12 12 0 4 8 12 20 18 11 6 24 22 29 35 7 18 14 23 26 18 12 -4 15
-3 10 5 -4 7 -2 12 3 12 6 0 11 6 11 14 0 8 9 17 19 21 10 3 35 27 55 52 20
25 36 42 36 38 0 -5 5 -4 12 3 8 8 8 15 -2 29 -12 15 -12 16 0 6 17 -16 34
-17 25 -3 -4 6 -3 9 2 8 11 -4 63 37 63 50 0 6 5 14 12 18 7 4 8 3 4 -4 -4 -7
-3 -12 2 -12 6 0 12 7 16 15 3 8 12 15 20 15 7 0 17 7 20 16 3 8 9 13 13 11 8
-5 39 23 37 33 0 3 9 3 20 2 17 -3 19 -1 9 9 -7 7 -13 17 -13 23 0 5 6 2 13
-8 12 -16 14 -16 42 6 17 12 31 26 33 30 2 4 10 4 19 1 11 -4 14 -3 9 6 -4 6
-4 10 1 9 4 -2 23 3 41 11 23 10 29 17 23 25 -7 9 -2 12 17 13 47 1 53 3 47
13 -3 5 0 7 8 4 8 -3 21 2 30 10 9 9 21 16 27 16 6 0 33 11 60 25 27 14 56 25
64 25 9 0 13 6 10 14 -4 10 2 12 22 8 20 -4 25 -2 19 8 -5 8 -4 11 3 6 6 -3
27 2 47 13 22 11 31 21 23 24 -11 4 -11 6 0 6 7 1 10 6 6 13 -4 7 -3 8 5 4 6
-4 9 -12 6 -17 -4 -5 1 -9 10 -9 11 0 15 5 12 14 -4 9 0 12 13 9 26 -7 59 14
55 34 -2 10 -4 22 -4 26 -1 5 -6 5 -13 1 -7 -4 -8 -3 -4 4 4 7 2 38 -3 69 -18
102 -9 206 24 287 6 14 5 17 -3 12 -19 -12 -14 1 13 30 13 14 22 31 18 37 -3
6 -1 7 5 3 12 -7 36 29 28 43 -8 12 19 33 29 23 5 -4 5 1 2 11 -7 20 28 61 44
52 12 -8 85 64 81 79 -2 6 0 8 4 4 3 -4 18 1 32 12 13 11 28 18 32 15 4 -3 13
2 20 10 7 8 19 15 27 15 8 0 11 5 8 10 -4 6 -3 10 2 9 20 -3 34 2 28 11 -3 6
1 7 9 4 9 -3 16 -1 16 6 0 6 5 8 10 5 6 -3 10 -2 10 4 0 6 6 8 14 5 8 -3 17 0
21 5 3 6 11 8 17 5 8 -5 9 -1 4 12 -6 15 -5 16 5 7 8 -8 18 -9 31 -2 10 5 18
7 18 3 0 -3 6 -2 13 3 6 6 29 13 50 17 21 4 35 11 33 15 -3 4 5 7 17 6 12 -1
26 0 32 3 5 4 16 7 25 7 8 1 43 10 78 20 42 12 59 21 50 26 -8 5 0 7 19 4 18
-2 35 1 38 6 4 5 1 9 -6 9 -7 0 -10 3 -7 6 4 3 16 1 27 -6 13 -6 21 -7 21 -1
0 12 -10 11 247 15 117 2 210 -1 207 -5 -3 -5 3 -10 13 -10 10 -1 31 -3 48 -5
16 -2 33 2 37 9 6 9 8 9 8 0 0 -7 7 -10 17 -6 11 5 14 3 8 -6 -6 -10 2 -12 34
-6 24 4 41 3 41 -3 0 -5 12 -9 28 -9 51 -1 171 -22 207 -37 19 -8 35 -12 35
-9 0 3 6 1 13 -6 10 -8 17 -7 26 2 10 9 11 9 6 -4 -4 -10 -1 -20 5 -24 6 -3 9
-1 8 6 -2 6 4 14 12 16 13 4 13 3 0 -6 -12 -9 -9 -11 15 -12 29 -1 29 -1 5 -8
-22 -6 -23 -8 -6 -14 11 -4 25 -2 35 5 14 11 14 11 4 -3 -11 -14 -5 -22 39
-60 29 -24 56 -43 61 -41 5 1 5 -3 1 -9 -5 -9 0 -10 15 -6 19 5 20 3 9 -10
-11 -14 -10 -15 12 -10 14 4 19 4 12 1 -9 -4 -3 -13 20 -27 18 -12 36 -20 41
-19 4 1 7 -3 7 -8 0 -6 5 -10 11 -10 5 0 8 4 4 9 -3 5 -1 12 4 16 6 3 8 -5 6
-18 -3 -14 4 -32 18 -48 12 -13 23 -29 25 -34 1 -6 13 -41 27 -80 30 -84 31
-151 6 -261 -10 -44 -16 -96 -14 -115 2 -27 1 -30 -6 -14 -8 16 -10 13 -11
-20 0 -22 -7 -49 -15 -59 -17 -23 -20 -40 -5 -31 21 13 9 -8 -21 -36 -17 -16
-25 -27 -16 -23 8 3 18 0 23 -7 5 -8 3 -10 -6 -4 -9 5 -11 4 -6 -3 4 -7 19
-12 34 -12 21 0 24 2 12 10 -8 5 -10 10 -5 10 6 0 17 -4 24 -9 12 -8 9 -11
-13 -17 l-29 -7 25 -13 c13 -7 31 -14 39 -16 7 -2 20 -9 27 -16 8 -7 18 -9 24
-6 7 4 8 2 4 -5 -6 -8 0 -10 21 -6 23 4 24 4 8 -4 -14 -7 -15 -10 -5 -10 9 -1
32 -12 52 -26 41 -28 53 -31 42 -12 -4 6 7 -3 25 -22 17 -19 31 -31 31 -27 0
4 12 -2 26 -13 15 -11 30 -18 35 -15 5 3 8 0 7 -7 -2 -6 3 -14 11 -17 8 -3 11
0 7 7 -12 20 -1 12 30 -20 23 -24 25 -29 9 -24 -16 5 -17 5 -5 -3 18 -13 33
-5 26 15 -3 8 -1 11 5 8 5 -4 7 -16 3 -27 -8 -28 16 -42 33 -20 13 15 13 14 4
-5 -15 -29 -14 -33 4 -27 9 4 15 0 15 -10 0 -9 3 -15 8 -14 4 2 7 0 7 -3 0
-10 27 -39 37 -39 5 0 6 6 2 13 -4 7 -3 9 2 4 5 -5 9 -12 9 -15 0 -16 32 -51
40 -44 5 4 5 2 2 -4 -4 -7 2 -23 14 -35 16 -18 19 -20 15 -6 -4 11 -2 16 5 12
5 -4 7 -15 4 -26 -4 -11 -2 -19 4 -19 6 0 11 -8 11 -17 1 -16 2 -16 15 1 16
21 21 10 6 -13 -10 -15 26 -74 39 -66 10 6 61 -61 53 -68 -11 -11 39 -78 54
-73 8 4 11 1 7 -5 -4 -6 0 -15 7 -20 10 -6 10 -9 2 -9 -9 0 -8 -10 4 -35 13
-28 21 -34 37 -30 18 5 19 5 4 -5 -9 -6 -15 -17 -12 -25 4 -8 10 -12 15 -9 5
3 6 -2 3 -10 -3 -8 3 -22 14 -32 12 -9 18 -24 14 -32 -3 -10 -1 -13 6 -8 8 5
12 0 12 -12 0 -25 44 -104 53 -96 3 4 2 16 -4 28 -10 20 -10 20 5 2 11 -13 13
-23 6 -31 -11 -14 -3 -45 11 -45 5 0 8 -3 8 -7 -4 -24 3 -43 14 -40 7 1 11 -7
10 -21 -2 -15 1 -21 9 -16 7 5 8 3 3 -6 -4 -7 -2 -16 6 -21 11 -7 11 -9 1 -9
-9 0 -8 -9 5 -32 10 -18 18 -40 19 -48 1 -8 12 -73 24 -145 13 -71 24 -161 25
-200 2 -38 4 -77 5 -85 3 -35 -10 -369 -19 -439 -5 -42 -9 -83 -9 -91 0 -8 -8
-43 -16 -78 -9 -35 -14 -68 -10 -73 3 -5 0 -9 -6 -9 -6 0 -8 -5 -5 -10 4 -6 2
-16 -3 -23 -10 -13 -23 -68 -24 -104 0 -13 -4 -20 -9 -17 -5 3 -6 -1 -3 -9 3
-8 1 -18 -5 -22 -6 -3 -11 -15 -11 -26 0 -10 -4 -19 -10 -19 -5 0 -7 -6 -4
-13 2 -7 -4 -24 -16 -37 -25 -28 -26 -48 -2 -29 15 13 16 12 3 -3 -7 -10 -17
-15 -22 -12 -5 3 -9 0 -9 -6 0 -7 -8 -24 -19 -38 -12 -17 -18 -41 -16 -66 1
-33 0 -36 -11 -21 -15 21 -35 11 -28 -13 4 -12 3 -13 -3 -5 -12 17 -44 -37
-38 -65 3 -16 0 -19 -12 -15 -12 5 -14 3 -8 -8 4 -8 5 -11 0 -7 -14 13 -33
-35 -22 -56 6 -11 5 -16 0 -13 -19 12 -59 -37 -54 -66 1 -5 -3 -6 -9 -2 -5 3
-10 1 -10 -5 0 -6 -4 -9 -10 -5 -11 7 -42 -50 -32 -60 4 -3 3 -6 -3 -4 -5 1
-21 -3 -35 -9 -14 -6 -21 -11 -16 -11 5 -1 3 -8 -4 -16 -7 -9 -14 -25 -16 -38
-2 -12 -17 -77 -32 -144 -16 -68 -27 -125 -24 -128 3 -3 -9 -23 -26 -44 -20
-25 -27 -41 -20 -43 9 -3 9 -6 0 -12 -7 -4 -12 -2 -12 3 0 6 -5 11 -11 11 -6
0 -9 -7 -6 -14 4 -10 1 -13 -7 -10 -8 3 -17 0 -22 -7 -5 -8 -3 -10 6 -4 8 5
11 4 6 -3 -3 -5 0 -13 6 -16 7 -3 3 -3 -9 0 -19 4 -22 2 -17 -13 5 -15 4 -15
-5 -3 -13 18 -23 9 -25 -23 0 -14 -4 -23 -8 -20 -5 2 -9 -3 -9 -11 -2 -24 -4
-29 -17 -53 -7 -12 -11 -26 -10 -30 1 -4 -8 -27 -20 -51 -13 -23 -20 -47 -17
-51 2 -5 -2 -14 -10 -21 -9 -8 -13 -21 -10 -31 4 -12 1 -21 -9 -25 -9 -3 -16
-16 -16 -28 0 -12 -4 -26 -8 -31 -16 -18 -41 -100 -40 -125 2 -27 22 -53 32
-43 3 4 6 1 6 -6 0 -7 5 -9 12 -5 7 4 8 3 4 -4 -6 -11 5 -16 26 -13 4 0 4 -7
1 -16 -5 -12 -3 -14 7 -8 9 5 11 4 6 -3 -5 -8 2 -12 18 -12 14 0 26 -5 26 -11
0 -5 -6 -7 -12 -4 -7 4 5 -9 27 -29 21 -19 44 -34 49 -33 6 1 10 -3 11 -9 0
-14 60 -65 69 -59 3 3 4 2 1 -1 -2 -4 16 -23 40 -43 24 -20 53 -49 66 -64 17
-23 24 -26 31 -15 7 9 8 8 4 -6 -8 -22 31 -89 46 -80 7 4 8 2 4 -4 -9 -15 21
-85 33 -78 5 4 12 2 16 -3 3 -6 -3 -8 -13 -6 -21 4 -23 -17 -4 -52 8 -14 19
-20 32 -18 11 2 23 -1 26 -7 4 -7 2 -8 -4 -4 -7 4 -12 3 -12 -2 0 -14 28 -23
35 -12 4 6 13 10 21 10 8 0 13 -4 10 -9 -9 -14 35 -63 51 -57 8 4 11 1 7 -5
-4 -8 1 -9 17 -4 19 5 21 4 9 -5 -12 -9 -8 -10 20 -6 28 5 31 4 17 -5 -17 -10
-16 -13 15 -31 47 -29 83 -38 99 -25 12 10 12 9 1 -3 -20 -23 -14 -30 21 -26
17 3 36 5 40 5 5 1 5 6 1 13 -5 7 -3 8 5 4 9 -6 8 -13 -5 -27 -13 -15 -19 -16
-25 -7 -4 7 -11 9 -16 5 -14 -14 20 -26 41 -15 20 10 20 10 6 -7 -14 -17 -13
-18 2 -12 10 3 17 3 17 -1 -3 -20 3 -23 19 -11 9 7 14 10 10 5 -8 -9 22 -46
38 -46 6 0 23 -9 38 -21 14 -11 30 -17 36 -14 6 3 13 -1 16 -9 3 -9 13 -16 21
-16 8 0 12 4 8 9 -3 5 0 13 6 17 8 4 9 3 5 -4 -10 -16 7 -15 23 1 11 10 13 10
7 0 -4 -7 -2 -13 5 -13 6 0 1 -9 -12 -21 l-24 -20 23 6 c15 4 22 2 20 -5 -2
-7 19 -24 47 -38 27 -15 52 -30 55 -33 8 -8 44 -22 53 -20 5 1 6 -3 2 -9 -4
-7 5 -9 27 -6 18 3 27 3 21 0 -18 -8 -16 -25 1 -18 8 3 17 0 22 -7 5 -8 3 -10
-6 -4 -9 5 -11 4 -6 -3 4 -7 13 -12 20 -12 8 0 19 -7 26 -15 7 -9 19 -14 27
-11 8 3 11 1 8 -4 -3 -6 1 -10 9 -10 9 0 16 -5 16 -11 0 -5 5 -7 10 -4 6 4 7
11 4 17 -4 7 -2 8 5 4 6 -4 8 -12 5 -18 -5 -7 -1 -9 9 -5 11 4 14 2 11 -7 -3
-8 0 -17 6 -21 6 -3 9 -2 8 3 -2 6 2 9 7 9 6 -1 9 -7 7 -13 -1 -7 31 -33 73
-59 41 -26 75 -49 75 -52 0 -2 -6 -1 -12 3 -7 4 -58 35 -113 69 -55 34 -252
151 -437 259 -200 117 -335 202 -331 209 3 6 1 7 -5 3 -11 -7 -290 149 -321
179 -7 7 -17 35 -22 61 -5 27 -19 69 -31 94 -28 56 -154 183 -318 319 -141
117 -155 136 -141 184 19 69 182 473 199 497 10 14 32 34 49 45 47 30 57 56
99 239 l38 169 65 68 c42 42 88 106 125 171 32 57 72 120 88 140 75 95 160
335 204 573 16 84 19 151 19 425 0 298 -2 333 -22 425 -36 163 -58 219 -173
450 -85 169 -135 254 -216 368 -193 272 -312 375 -634 552 -69 37 -127 70
-129 72 -3 2 9 34 27 71 18 39 45 128 63 212 39 179 37 230 -16 337 -32 66
-45 81 -113 130 -42 31 -101 78 -130 105 -61 54 -158 111 -217 127 -41 11
-347 53 -533 73 -159 18 -271 2 -547 -78 -215 -61 -376 -124 -416 -160 -10 -9
-23 -13 -29 -9 -6 3 -9 2 -8 -4 2 -5 -24 -31 -57 -58 -76 -62 -158 -168 -185
-241 -45 -118 -46 -256 -4 -362 9 -23 15 -42 13 -44 -6 -6 -308 -146 -314
-146 -3 0 -56 -25 -119 -55 -131 -64 -284 -159 -388 -241 -135 -107 -356 -349
-446 -488 -110 -169 -239 -542 -288 -832 -24 -136 -24 -442 0 -578 29 -170 60
-249 155 -390 l46 -68 0 -107 0 -106 57 -105 c36 -67 69 -149 92 -225 20 -66
41 -138 48 -159 7 -24 37 -65 73 -103 59 -62 61 -63 113 -63 103 0 100 4 156
-261 28 -128 49 -246 48 -263 -4 -45 -44 -100 -145 -196 -167 -159 -319 -315
-342 -351 -131 -203 -534 -499 -849 -624 -91 -35 -120 -58 -148 -114 -13 -25
-27 -49 -32 -53 -5 -3 -73 -28 -150 -54 -78 -26 -145 -50 -149 -54 -4 -4 11
-37 34 -74 32 -49 47 -65 59 -60 33 14 279 66 388 82 85 13 118 21 126 34 16
27 -1 36 -87 49 -83 12 -92 22 -62 66 8 12 113 70 232 130 228 113 263 136
406 266 83 75 89 78 102 61 7 -11 16 -34 20 -53 12 -62 46 -141 82 -188 33
-43 35 -48 24 -83 -26 -87 1 -266 54 -356 32 -54 100 -107 173 -135 47 -17 71
-20 134 -16 50 3 82 1 92 -6 8 -7 46 -59 84 -117 80 -121 108 -150 177 -182
43 -20 66 -23 157 -22 l106 0 41 -72 c47 -82 101 -136 156 -154 59 -19 160 -9
234 25 l64 29 31 -40 c83 -105 133 -129 209 -100 24 9 45 16 47 16 3 0 5 -33
6 -73 0 -130 66 -207 185 -215 51 -4 68 0 132 31 l74 35 -24 -75 c-27 -85 -45
-124 -67 -142 -39 -33 0 -81 64 -81 51 0 75 30 104 129 13 45 26 85 29 87 2 3
8 -26 11 -63 13 -128 83 -333 131 -382 l23 -24 29 20 c15 10 40 24 56 31 34
15 34 38 1 83 -41 55 -70 117 -102 224 -31 101 -83 307 -78 312 1 2 21 -24 44
-56 76 -109 174 -170 271 -171 119 0 197 51 225 148 19 71 20 124 2 262 -8 58
-13 107 -11 109 2 2 48 -6 102 -18 120 -26 137 -26 190 -2 99 45 178 158 171
243 l-3 40 70 27 c84 33 126 54 183 94 47 31 102 108 102 141 0 17 -5 16 -37
-15 l-38 -34 38 40 c35 39 37 44 37 108 l0 67 119 79 c111 74 120 83 136 128
40 113 32 103 91 103 39 0 59 -5 73 -19 16 -16 21 -17 42 -5 37 21 42 17 35
-26 -5 -34 -4 -40 12 -40 10 0 31 14 48 31 33 35 67 51 89 43 12 -5 11 -13
-10 -48 -27 -47 -33 -86 -12 -86 8 0 29 21 47 48 41 57 58 71 87 72 34 0 36
-16 9 -63 -25 -42 -33 -77 -20 -90 4 -3 31 23 61 59 37 43 63 64 78 64 34 0
36 -10 10 -49 -23 -33 -34 -91 -18 -91 4 0 31 25 60 56 48 53 54 56 87 51 47
-8 435 -162 506 -201 104 -57 358 -217 372 -233 7 -9 9 -14 3 -11 -6 3 -10 -6
-11 -22 -1 -26 1 -26 34 19 19 25 40 50 46 54 7 5 5 12 -7 20 -41 27 -50 37
-19 22 28 -14 36 -14 50 -3 15 12 16 11 3 -4 -7 -10 -9 -18 -4 -18 5 0 10 -7
10 -15 0 -8 -4 -12 -8 -9 -9 5 -35 -36 -31 -49 1 -5 -2 -6 -7 -3 -12 8 -42
-34 -34 -47 3 -6 1 -7 -4 -4 -14 9 -31 -13 -28 -35 2 -10 0 -16 -4 -15 -19 6
-77 -75 -66 -93 3 -6 -1 -7 -9 -4 -9 3 -16 2 -16 -3 0 -6 -15 -30 -34 -55 -28
-36 -32 -48 -24 -64 9 -15 8 -17 -2 -7 -10 9 -18 5 -37 -18 -14 -16 -21 -34
-17 -40 4 -7 3 -9 -4 -6 -11 8 -106 -118 -98 -131 2 -4 -5 -19 -16 -32 l-20
-25 18 30 c13 22 14 27 2 18 -8 -7 -23 -29 -34 -48 -10 -19 -22 -35 -26 -35
-4 0 -15 -14 -24 -32 -9 -18 -23 -38 -30 -46 -22 -21 -36 -51 -29 -62 3 -5 0
-8 -7 -5 -8 3 -25 -14 -42 -41 -16 -25 -51 -68 -78 -94 -33 -32 -47 -53 -42
-62 6 -11 5 -11 -8 0 -9 7 -18 9 -20 4 -1 -5 -27 -26 -56 -46 -28 -21 -49 -43
-45 -48 3 -7 1 -8 -5 -4 -14 8 -108 -61 -104 -76 1 -5 -2 -7 -8 -3 -16 10 -62
-23 -54 -38 4 -7 4 -9 -1 -5 -12 11 -47 -12 -41 -27 3 -8 0 -12 -8 -9 -17 7
-108 -65 -100 -78 4 -7 2 -8 -5 -4 -6 4 -28 -5 -49 -22 -20 -16 -55 -41 -77
-55 -76 -50 -93 -70 -30 -36 33 18 62 36 63 40 2 5 10 9 17 9 7 0 16 7 19 16
3 8 10 12 16 9 5 -3 10 2 10 12 0 13 3 14 8 5 15 -23 374 236 572 413 878 784
1395 1811 1501 2985 24 265 12 683 -27 965 -200 1441 -1068 2678 -2354 3353
-279 146 -653 292 -917 357 -35 8 -91 22 -125 31 -35 8 -74 17 -88 20 -14 2
-69 13 -123 24 -54 10 -123 22 -153 24 -31 3 -59 8 -63 10 -29 18 -557 46
-736 40z m418 -96 c10 -7 31 -59 47 -117 28 -98 32 -127 50 -450 19 -343 15
-452 -9 -264 -13 97 -96 491 -106 501 -10 10 -2 -73 35 -398 18 -159 26 -323
14 -293 -3 7 -24 92 -48 189 -26 108 -48 180 -56 182 -10 4 -12 -11 -7 -74 4
-44 9 -113 12 -154 l5 -75 -34 130 c-81 310 -182 566 -284 723 -14 22 -14 22
30 22 l45 0 60 -127 c33 -71 73 -162 88 -203 32 -86 49 -110 66 -93 9 9 -8 68
-65 233 -43 122 -76 223 -74 225 2 1 18 10 37 20 46 23 81 7 121 -55 17 -27
38 -51 47 -54 14 -6 15 1 10 52 -4 32 -9 66 -13 75 -7 20 5 22 29 5z m170 -12
c3 -7 14 -65 23 -127 21 -128 26 -553 10 -714 -14 -133 -20 -88 -56 375 -17
223 -33 422 -36 443 -6 36 -5 37 24 37 16 0 32 -6 35 -14z m177 -15 c0 -5 -13
-131 -30 -281 -16 -150 -30 -287 -30 -304 -1 -22 -3 -27 -9 -16 -5 8 -12 88
-15 178 -4 90 -11 212 -16 271 -11 137 -8 149 39 154 20 2 42 4 49 5 6 1 12
-2 12 -7z m-905 -21 c3 -6 -1 -7 -9 -4 -18 7 -21 14 -7 14 6 0 13 -4 16 -10z
m-85 -4 c0 -3 -4 -8 -10 -11 -5 -3 -10 -1 -10 4 0 6 5 11 10 11 6 0 10 -2 10
-4z m1100 -21 c10 -12 7 -31 -13 -97 -34 -108 -53 -207 -67 -343 -32 -309 -42
-377 -54 -364 -10 11 46 622 64 705 25 109 42 133 70 99z m143 -12 c-2 -4 -19
-50 -39 -102 -44 -116 -86 -274 -119 -451 l-25 -135 5 165 c6 237 41 394 112
506 22 35 30 41 47 34 12 -4 20 -12 19 -17z m-932 -222 c23 -46 60 -136 84
-200 44 -120 122 -407 113 -417 -3 -2 -16 0 -29 6 -21 10 -30 31 -63 163 -79
313 -102 366 -225 534 l-53 72 23 31 23 30 43 -67 c24 -38 61 -106 84 -152z
m1057 203 c7 -12 -1 -34 -30 -81 -76 -126 -111 -266 -131 -542 -10 -126 -15
-156 -29 -165 -22 -13 -28 -7 -39 41 -20 89 -11 181 42 398 56 233 71 274 119
328 35 40 54 46 68 21z m192 -49 c0 -5 -5 -3 -10 5 -5 8 -10 20 -10 25 0 6 5
3 10 -5 5 -8 10 -19 10 -25z m-1481 -35 c60 -42 166 -203 218 -330 17 -41 45
-140 63 -220 17 -80 34 -153 36 -162 4 -14 -1 -18 -25 -18 -34 0 -25 -21 -87
205 -53 195 -101 306 -195 449 -33 49 -59 90 -59 92 0 10 25 2 49 -16z m1330
-131 c-28 -63 -68 -157 -90 -209 l-39 -95 0 50 c0 124 58 278 134 356 58 61
57 35 -5 -102z m-1439 101 c10 0 192 -301 215 -355 17 -41 95 -301 95 -317 0
-5 -21 -8 -46 -6 l-46 3 -28 75 c-47 131 -100 223 -117 207 -3 -3 12 -65 32
-137 54 -197 35 -185 -60 35 -49 116 -74 155 -96 155 -3 0 18 -70 48 -156 29
-87 51 -159 48 -162 -7 -7 -6 -10 -71 118 -72 140 -148 224 -236 260 l-57 23
21 39 c12 21 26 38 30 38 5 0 32 -16 61 -35 54 -36 95 -47 80 -21 -4 8 -30 38
-57 67 -48 52 -49 54 -25 60 27 7 24 8 133 -85 107 -92 119 -76 34 46 -36 51
-68 98 -71 104 -8 14 72 57 91 49 8 -3 17 -5 22 -5z m1715 -20 c3 -6 -1 -7 -9
-4 -18 7 -21 14 -7 14 6 0 13 -4 16 -10z m-153 -16 c2 -8 -22 -66 -52 -127
-64 -130 -113 -266 -141 -393 l-19 -89 4 95 c9 162 62 333 149 478 31 52 53
66 59 36z m64 -141 c-63 -100 -128 -234 -163 -338 l-33 -100 5 60 c9 93 24
152 68 255 50 119 83 168 122 179 17 4 32 6 34 5 2 -2 -12 -30 -33 -61z m93
-54 c15 -44 14 -203 -3 -264 -7 -28 -21 -64 -30 -80 -20 -36 -16 -11 10 57 15
39 16 49 5 62 -30 36 -52 10 -91 -109 -17 -52 -36 -95 -41 -95 -17 0 -9 25 57
175 36 83 68 156 71 163 4 10 -4 13 -32 10 l-39 -3 -43 -105 c-24 -58 -50
-120 -58 -139 -28 -61 -25 -26 5 64 20 60 52 123 98 192 37 56 70 103 74 103
3 0 11 -14 17 -31z m-2181 -4 c-3 -3 -9 2 -12 12 -6 14 -5 15 5 6 7 -7 10 -15
7 -18z m2329 -87 c-3 -7 -5 -2 -5 12 0 14 2 19 5 13 2 -7 2 -19 0 -25z m-2155
-8 c55 -20 99 -56 141 -113 31 -41 121 -216 115 -223 -15 -15 -56 23 -125 116
-61 82 -93 115 -144 149 -56 37 -65 47 -61 67 5 29 8 29 74 4z m-39 -116 c34
-6 46 -18 112 -106 41 -54 75 -103 75 -108 0 -27 -37 -3 -103 65 -50 52 -82
77 -104 81 -40 8 -57 27 -48 54 7 22 12 23 68 14z m1624 -96 c-3 -7 -5 -2 -5
12 0 14 2 19 5 13 2 -7 2 -19 0 -25z m-1629 -38 c37 -23 91 -80 92 -96 0 -15
-45 -27 -70 -19 -22 7 -47 43 -65 96 -17 46 -8 50 43 19z m1976 -116 c23 -9
20 -19 -10 -33 -23 -10 -26 -10 -20 4 3 9 6 21 6 26 0 11 3 11 24 3z m-159
-74 c28 -13 22 -14 -90 -21 -123 -8 -296 -40 -442 -82 -96 -29 -100 -17 -10
35 64 37 130 61 208 78 64 13 297 6 334 -10z m-2190 -30 c-3 -5 -14 -10 -23
-9 -14 0 -13 2 3 9 27 11 27 11 20 0z m1080 -9 c22 -5 33 -9 24 -10 -54 -4
-330 -91 -451 -142 -273 -116 -406 -190 -502 -282 -49 -46 -50 -48 -21 -42 17
3 86 37 155 75 258 142 493 243 675 291 70 19 116 24 210 24 108 0 125 -2 169
-25 30 -15 53 -35 58 -49 8 -23 8 -24 -39 -17 -67 8 -250 -9 -352 -35 -197
-48 -767 -367 -1023 -572 -255 -204 -471 -469 -616 -754 -83 -165 -109 -235
-138 -375 -21 -104 -23 -129 -13 -164 13 -50 4 -72 -43 -105 l-31 -23 6 80 c3
43 17 122 30 174 17 71 21 104 14 129 l-8 34 -21 -20 c-35 -36 -108 -374 -108
-504 0 -37 -4 -71 -10 -74 -13 -8 -13 174 0 345 7 94 23 182 64 354 51 212 59
276 35 276 -26 0 -49 -50 -87 -186 -67 -239 -73 -277 -79 -524 -3 -124 -8
-229 -13 -233 -4 -4 -17 46 -29 112 -13 67 -27 121 -31 121 -5 0 -10 -24 -12
-52 l-3 -53 -17 75 c-30 131 -32 147 -17 133 21 -20 25 -16 42 40 32 105 99
407 93 422 -4 11 -11 12 -28 6 -17 -6 -30 -28 -50 -84 -32 -90 -58 -210 -58
-267 0 -22 -4 -40 -10 -40 -16 0 -12 208 6 301 44 236 106 434 190 604 69 140
121 209 301 395 193 200 282 265 618 459 221 128 196 95 -103 -131 -101 -77
-234 -190 -317 -270 -209 -202 -455 -519 -455 -587 0 -9 -17 -64 -37 -123 -21
-58 -34 -110 -30 -114 14 -14 44 30 122 181 106 205 119 227 198 334 92 125
211 246 390 400 265 226 573 406 776 454 56 14 99 21 94 17 -4 -3 -62 -28
-128 -55 -263 -106 -337 -151 -630 -386 -235 -188 -338 -288 -440 -432 -111
-154 -204 -357 -165 -357 6 0 36 39 66 88 210 328 266 393 544 631 313 267
550 396 898 487 181 48 267 59 337 45z m1310 -84 c153 -50 362 -174 490 -292
l50 -46 -84 56 c-290 190 -592 283 -890 273 -117 -4 -122 -3 -75 9 100 27 152
32 289 29 118 -3 153 -7 220 -29z m392 -64 c0 -9 -4 -10 -14 -2 -7 6 -13 12
-13 14 0 1 6 2 13 2 8 0 14 -6 14 -14z m-3140 1 c-3 -3 -12 -4 -19 -1 -8 3 -5
6 6 6 11 1 17 -2 13 -5z m2383 -45 c363 -61 621 -184 909 -436 87 -76 121 -97
121 -74 0 22 -100 139 -164 192 -39 31 -82 67 -96 79 -25 21 -24 21 15 -1 173
-98 366 -275 424 -389 39 -75 33 -80 -26 -20 -32 32 -68 61 -80 65 -20 6 -21
4 -13 -25 5 -17 35 -65 68 -108 241 -317 244 -321 276 -432 21 -73 46 -216 46
-260 l-1 -35 -21 40 c-12 22 -39 83 -61 135 -62 150 -153 321 -220 415 -81
115 -261 294 -394 394 -152 113 -281 174 -630 295 -327 114 -413 139 -513 151
-59 7 -62 9 -35 17 103 30 203 30 395 -3z m-645 -78 c25 -8 19 -9 -40 -10 -77
-1 -184 -21 -254 -48 -78 -29 -372 -183 -451 -236 -154 -103 -388 -268 -400
-282 -14 -17 -5 -35 17 -35 8 0 138 81 289 180 282 186 400 254 494 289 130
48 266 65 290 36 8 -10 10 -28 5 -52 -9 -52 -159 -405 -202 -475 -62 -104
-168 -231 -285 -343 -111 -106 -238 -213 -238 -200 0 4 20 37 45 75 24 38 51
83 60 99 8 17 91 106 183 198 174 175 244 261 288 358 48 104 66 208 44 260
-9 23 -7 28 -45 -88 -67 -206 -133 -292 -422 -546 -168 -149 -283 -240 -438
-348 -263 -184 -351 -250 -442 -330 -126 -112 -266 -297 -344 -455 -18 -38
-36 -68 -40 -68 -16 0 -31 73 -24 117 9 64 112 261 192 368 99 133 238 266
513 492 448 368 492 407 566 513 44 63 52 81 41 86 -14 5 -68 -44 -105 -97
-14 -21 -270 -232 -624 -517 -260 -210 -378 -328 -483 -487 -93 -139 -147
-253 -225 -475 -34 -96 -63 -177 -65 -178 -2 -2 -11 10 -19 27 -28 53 -20 129
29 279 77 235 236 530 377 699 51 61 363 409 392 438 l21 20 -23 3 c-51 7
-279 -194 -393 -348 -83 -111 -287 -424 -310 -474 -19 -43 -45 -73 -55 -64 -6
7 79 245 108 303 38 75 142 250 172 290 151 199 375 425 516 521 121 82 612
385 680 419 71 36 187 74 269 90 81 16 281 13 336 -4z m1612 -33 c-3 -8 -6 -5
-6 6 -1 11 2 17 5 13 3 -3 4 -12 1 -19z m-3590 6 c-3 -3 -12 -4 -19 -1 -8 3
-5 6 6 6 11 1 17 -2 13 -5z m2614 -189 c105 -52 235 -109 298 -129 108 -35
165 -46 145 -27 -9 9 -475 250 -541 280 -34 16 -43 31 -19 31 13 0 382 -129
486 -169 90 -36 319 -167 415 -239 50 -37 125 -100 168 -141 75 -72 177 -196
177 -216 0 -5 -26 16 -57 46 -58 57 -123 106 -332 258 -84 61 -120 81 -139 79
-44 -5 -35 -25 30 -64 175 -105 344 -252 466 -403 131 -162 207 -296 288 -503
40 -103 45 -136 8 -58 -14 30 -41 87 -59 125 -51 108 -259 375 -293 375 -20 0
-14 -35 9 -56 38 -33 135 -157 181 -229 104 -163 176 -354 183 -487 3 -46 3
-78 1 -73 -3 6 -19 71 -36 145 -31 139 -72 240 -131 327 -18 27 -109 125 -202
220 -141 143 -181 178 -241 209 -81 42 -234 130 -380 216 -54 33 -100 57 -103
54 -10 -9 18 -46 72 -94 34 -30 112 -79 198 -123 257 -134 339 -200 500 -401
193 -242 244 -374 254 -654 7 -181 -1 -255 -29 -286 -18 -21 -19 -21 -13 -3 3
11 9 34 12 50 5 28 3 27 -26 -15 -17 -24 -36 -57 -42 -72 -6 -15 -15 -28 -20
-28 -5 0 0 18 11 40 38 74 53 157 47 255 -26 402 -310 766 -876 1120 -140 89
-371 240 -586 385 -111 75 -173 131 -255 230 l-45 54 45 -32 c25 -17 104 -82
175 -143 147 -125 251 -202 266 -197 6 2 -94 104 -220 227 -127 123 -231 228
-231 232 0 18 22 7 82 -41 154 -125 388 -273 628 -398 174 -91 561 -274 567
-268 2 2 -19 24 -47 49 -30 27 -117 80 -217 132 -343 179 -721 403 -868 513
-33 25 -62 47 -64 48 -1 2 0 7 4 13 6 11 21 5 356 -164z m1089 111 c0 -2 -8
-10 -17 -17 -16 -13 -17 -12 -4 4 13 16 21 21 21 13z m-3810 -20 c0 -2 -7 -9
-15 -16 -13 -11 -14 -10 -9 4 5 14 24 23 24 12z m2137 -139 c5 -42 -2 -60 -85
-229 -136 -274 -250 -410 -499 -597 -157 -118 -178 -123 -63 -16 281 263 382
401 525 718 77 172 90 196 103 183 8 -7 17 -34 19 -59z m1738 53 c-3 -5 -12
-10 -18 -10 -7 0 -6 4 3 10 19 12 23 12 15 0z m-661 -781 c417 -283 630 -541
706 -854 19 -75 28 -246 13 -232 -4 4 -14 38 -24 76 -19 76 -54 150 -149 321
-192 345 -157 314 -810 735 -247 160 -287 188 -393 280 -62 53 -167 177 -193
227 -15 29 150 -78 850 -553z m806 567 c-7 -7 -13 -7 -20 0 -6 6 -3 10 10 10
13 0 16 -4 10 -10z m0 -30 c0 -3 -4 -8 -10 -11 -5 -3 -10 -1 -10 4 0 6 5 11
10 11 6 0 10 -2 10 -4z m-4330 -51 c-7 -9 -15 -13 -19 -10 -3 3 1 10 9 15 21
14 24 12 10 -5z m2625 -160 c138 -184 198 -236 645 -555 213 -152 356 -248
415 -276 119 -58 157 -91 197 -172 l33 -67 0 -320 c-1 -402 -13 -472 -88 -499
-23 -8 -31 -4 -77 47 -66 72 -131 103 -257 122 -124 19 -249 19 -383 0 -177
-25 -270 -87 -316 -212 -9 -26 -21 -52 -25 -57 -4 -5 -50 10 -103 33 -52 23
-130 49 -173 57 -119 23 -183 3 -319 -97 l-51 -38 -7 45 c-13 98 -79 174 -202
230 -107 50 -180 64 -331 64 -103 0 -164 -6 -288 -29 -171 -32 -210 -50 -261
-116 -49 -65 -47 -65 -242 21 -98 43 -179 79 -180 80 -8 5 23 84 69 179 48 97
145 240 221 323 103 114 305 260 799 576 181 116 272 190 419 343 68 70 121
123 119 117 -2 -6 -28 -64 -58 -128 -30 -64 -51 -119 -48 -123 4 -3 8 -4 10
-2 43 60 167 257 206 327 29 51 55 92 56 90 2 -2 -9 -64 -25 -138 -45 -206
-40 -203 45 26 l62 166 27 -78 c58 -164 143 -316 240 -429 25 -28 26 -29 17
-5 -5 14 -42 90 -81 169 -76 155 -134 309 -145 387 -9 58 -10 59 80 -61z
m-2695 -5 c0 -5 -2 -10 -4 -10 -3 0 -8 5 -11 10 -3 6 -1 10 4 10 6 0 11 -4 11
-10z m-39 -23 c-10 -9 -11 -8 -5 6 3 10 9 15 12 12 3 -3 0 -11 -7 -18z m4610
-54 c12 -16 12 -17 -2 -6 -9 7 -20 9 -24 5 -5 -4 -5 -1 -1 6 9 16 11 15 27 -5z
m-1262 -261 c167 -106 334 -217 371 -245 130 -100 250 -201 250 -209 0 -27
-265 111 -460 239 -250 165 -470 348 -512 427 -11 20 -11 20 18 1 16 -10 166
-106 333 -213z m-3412 176 c-3 -8 -6 -5 -6 6 -1 11 2 17 5 13 3 -3 4 -12 1
-19z m4769 -128 c0 -12 -4 -16 -9 -11 -5 5 -6 14 -3 20 10 15 12 14 12 -9z
m-3016 -134 c0 -7 -116 -115 -275 -256 -82 -73 -186 -165 -230 -204 -200 -178
-375 -394 -464 -574 -28 -56 -51 -105 -51 -110 0 -5 -9 -17 -21 -28 -17 -16
-22 -16 -29 -4 -28 43 -2 112 124 334 83 146 134 213 243 316 152 144 231 208
463 375 188 135 240 168 240 151z m3077 -108 c-3 -7 -5 -2 -5 12 0 14 2 19 5
13 2 -7 2 -19 0 -25z m-3397 -293 c0 -2 -10 -10 -22 -16 -21 -11 -22 -11 -9 4
13 16 31 23 31 12z m-955 -181 c-8 -20 -15 -39 -15 -42 0 -3 -3 -3 -6 0 -6 7
22 78 31 78 3 0 -2 -16 -10 -36z m-628 -6 c-3 -8 -6 -5 -6 6 -1 11 2 17 5 13
3 -3 4 -12 1 -19z m4470 -640 c-2 -13 -4 -3 -4 22 0 25 2 35 4 23 2 -13 2 -33
0 -45z m168 6 l-15 -39 6 35 c7 38 14 54 20 47 2 -2 -3 -21 -11 -43z m-4101
-11 c28 -10 57 -25 64 -33 30 -36 62 -113 82 -201 23 -99 57 -173 101 -221 28
-29 68 -38 70 -15 8 115 25 278 29 279 10 2 417 -202 427 -214 6 -7 18 -42 27
-78 47 -188 172 -328 353 -396 50 -19 94 -27 168 -31 122 -6 208 12 307 64 81
42 136 93 198 182 25 36 50 64 55 63 6 -1 11 -38 13 -82 5 -146 39 -81 52 101
9 129 21 162 78 222 77 80 232 89 382 21 84 -37 98 -57 110 -145 13 -104 40
-232 52 -246 21 -26 27 -11 23 68 -1 44 0 77 4 74 3 -4 35 -45 71 -93 213
-283 546 -339 764 -129 102 100 166 223 188 364 l12 75 69 61 c38 34 77 77 87
97 10 19 32 48 49 65 43 40 65 27 69 -41 4 -67 -11 -124 -65 -231 l-45 -91 -8
-144 c-6 -111 -13 -156 -31 -203 l-23 -60 -6 36 c-4 20 -3 70 2 110 9 81 4
131 -17 169 -17 32 -18 28 -39 -135 -21 -160 -49 -299 -87 -427 -33 -110 -122
-325 -144 -348 -13 -12 -15 -9 -15 31 0 25 -6 54 -14 65 -14 18 -15 18 -26
-11 -7 -16 -23 -75 -35 -130 -31 -132 -69 -236 -114 -310 l-36 -60 -3 45 c-6
114 -31 122 -55 18 -46 -188 -141 -373 -246 -478 -94 -93 -252 -195 -325 -209
-28 -5 -188 -17 -356 -26 -277 -15 -312 -16 -378 -2 -137 30 -267 120 -354
249 -52 75 -62 62 -28 -37 11 -32 19 -59 18 -61 -8 -7 -322 96 -368 121 -68
37 -188 157 -257 256 -99 143 -151 270 -179 431 -17 100 -26 121 -42 91 -25
-47 -24 -115 3 -226 6 -24 5 -27 -19 -27 -62 0 -114 50 -160 150 -25 56 -41
130 -71 325 -25 159 -220 758 -257 789 l-23 18 -3 -36 -3 -36 -57 32 c-31 17
-59 33 -61 35 -2 1 8 20 23 42 43 62 76 150 76 206 0 109 -80 205 -170 205
-24 0 -34 -9 -64 -57 -41 -65 -46 -107 -16 -123 24 -13 40 -6 40 17 0 19 41
93 51 93 4 0 -1 -25 -12 -55 -23 -67 -23 -79 0 -130 l18 -40 28 90 27 90 24
-64 c13 -35 24 -67 24 -72 0 -5 -16 -33 -35 -63 -19 -30 -40 -74 -46 -98 -16
-58 5 -103 78 -166 94 -81 101 -127 26 -173 l-32 -20 -29 93 c-17 51 -33 109
-37 128 -13 59 -45 123 -86 172 -73 87 -97 177 -77 293 12 71 26 102 60 130
36 30 79 32 152 8z m1486 -133 c133 -15 187 -36 246 -95 62 -62 79 -113 72
-218 -16 -227 -201 -387 -447 -387 -153 0 -263 42 -362 140 -95 94 -139 222
-119 347 15 93 66 149 159 178 21 6 19 2 -12 -25 -42 -36 -49 -70 -16 -70 11
0 66 32 122 70 l101 70 85 0 c47 0 124 -5 171 -10z m1751 -19 c72 -23 95 -27
109 -18 39 24 146 -51 181 -127 24 -52 24 -95 0 -177 -51 -179 -126 -274 -271
-342 -123 -59 -237 -36 -386 76 -129 98 -204 232 -204 368 0 59 41 142 83 168
26 16 138 49 252 74 62 14 149 6 236 -22z m-3480 -364 c-10 -9 -11 -8 -5 6 3
10 9 15 12 12 3 -3 0 -11 -7 -18z m40 -24 c-12 -20 -14 -14 -5 12 4 9 9 14 11
11 3 -2 0 -13 -6 -23z m139 -372 c0 -4 -6 -8 -14 -8 -8 0 -12 6 -9 14 5 13 23
9 23 -6z m3795 -879 c-3 -3 -11 0 -18 7 -9 10 -8 11 6 5 10 -3 15 -9 12 -12z
m248 -227 c-3 -9 -8 -14 -10 -11 -3 3 -2 9 2 15 9 16 15 13 8 -4z m-3197 -98
c96 -120 445 -479 522 -537 120 -91 249 -140 404 -156 66 -7 118 0 118 14 0 4
-37 13 -81 20 -95 15 -216 57 -279 97 -59 37 -251 187 -246 192 4 5 234 -34
289 -48 21 -6 59 -26 84 -45 134 -103 205 -117 533 -111 252 5 394 19 525 52
66 17 200 77 227 102 56 51 -32 -73 -117 -165 -104 -113 -288 -227 -430 -267
-33 -10 -64 -21 -69 -26 -17 -16 39 -26 104 -19 117 12 232 75 415 226 121 99
126 105 201 222 32 51 60 89 62 84 9 -27 -33 -168 -74 -252 -101 -204 -291
-326 -650 -415 -132 -33 -181 -52 -203 -78 -6 -8 -25 -20 -42 -27 -25 -11 -32
-10 -47 2 -33 30 -79 46 -282 103 -287 80 -388 123 -597 257 l-92 60 -117 180
c-132 205 -175 283 -198 351 -25 74 -51 281 -35 271 5 -3 39 -42 75 -87z
m2993 -1 c6 -4 22 -26 36 -50 31 -52 25 -77 -29 -124 -41 -36 -53 -38 -81 -18
-18 13 -18 15 8 46 32 38 35 80 7 105 -11 10 -20 28 -20 40 0 21 3 22 34 15
18 -4 39 -10 45 -14z m-4129 -60 c0 -2 -7 -7 -16 -10 -8 -3 -12 -2 -9 4 6 10
25 14 25 6z m-26 -45 c-2 -3 -12 3 -22 13 -16 17 -16 18 5 5 12 -7 20 -15 17
-18z m331 -21 c3 -5 1 -28 -6 -50 -11 -35 -10 -42 7 -61 10 -12 29 -25 42 -30
26 -10 30 -50 8 -69 -12 -9 -24 -6 -59 14 -24 15 -52 35 -63 47 -37 42 -6 159
43 159 12 0 25 -4 28 -10z m-415 -14 c0 -2 -7 -9 -15 -16 -13 -11 -14 -10 -9
4 5 14 24 23 24 12z m5005 -245 c3 -5 2 -12 -3 -15 -5 -3 -9 1 -9 9 0 17 3 19
12 6z m-1012 -92 c31 -14 47 -48 47 -98 0 -46 -29 -76 -82 -85 -30 -5 -41 -3
-58 14 -34 34 -28 41 45 52 18 3 20 10 17 66 -1 34 -1 62 2 62 3 0 16 -5 29
-11z m1332 -68 c3 -5 0 -13 -6 -17 -8 -5 -9 -3 -4 6 6 9 1 10 -16 5 -19 -5
-21 -4 -9 4 19 13 27 14 35 2z m-6040 -50 c-3 -6 -11 -11 -16 -11 -5 0 -4 6 3
14 14 16 24 13 13 -3z m1265 -143 c3 -27 11 -53 17 -59 6 -6 35 -14 64 -17 42
-6 55 -11 57 -26 9 -46 -94 -63 -156 -26 -34 21 -62 72 -62 112 0 35 28 70 53
66 18 -2 23 -12 27 -50z m-1570 -34 c0 -8 -19 -13 -24 -6 -3 5 1 9 9 9 8 0 15
-2 15 -3z m6750 -40 c0 -8 -19 -13 -24 -6 -3 5 1 9 9 9 8 0 15 -2 15 -3z m60
-40 c0 -8 -19 -13 -24 -6 -3 5 1 9 9 9 8 0 15 -2 15 -3z m-15 -39 l20 -16 -20
10 c-11 5 -29 17 -40 26 l-20 16 20 -10 c11 -5 29 -17 40 -26z m-1993 -19 c28
-33 22 -75 -14 -113 -28 -29 -38 -33 -82 -33 -69 0 -96 9 -96 30 0 22 32 34
66 26 44 -11 64 9 64 63 0 26 3 50 6 54 9 9 37 -4 56 -27z m2088 9 c14 -8 21
-14 15 -14 -5 0 -21 6 -35 14 -14 8 -20 14 -15 14 6 0 21 -6 35 -14z m0 -51
c0 -2 -9 0 -20 6 -11 6 -20 13 -20 16 0 2 9 0 20 -6 11 -6 20 -13 20 -16z
m-6832 -69 c-3 -3 -9 2 -12 12 -6 14 -5 15 5 6 7 -7 10 -15 7 -18z m6913 -38
c-10 -9 -11 -8 -5 6 3 10 9 15 12 12 3 -3 0 -11 -7 -18z m-2087 -8 c-10 -12
-37 -35 -59 -51 -28 -21 -23 -15 15 20 58 54 76 67 44 31z m-2843 -65 c21 -50
49 -66 102 -57 29 4 36 2 42 -15 3 -12 1 -30 -5 -42 -14 -26 -89 -28 -131 -3
-36 21 -75 77 -83 119 -6 25 -3 32 16 41 30 14 36 9 59 -43z m2739 -18 c0 -3
-15 -14 -32 -26 l-33 -22 30 26 c31 27 35 29 35 22z m-70 -51 c0 -6 -56 -35
-67 -35 -4 1 8 9 27 20 39 22 40 22 40 15z m-274 -148 c7 -35 6 -36 -41 -44
-51 -8 -155 40 -148 68 5 16 15 19 63 19 52 0 59 3 66 22 7 22 7 22 30 -7 13
-16 26 -42 30 -58z m-1900 -18 c15 -29 18 -31 56 -25 29 5 47 2 65 -10 l25
-16 -28 -20 c-16 -10 -39 -23 -51 -28 -43 -18 -113 26 -138 85 -11 26 -11 33
2 47 20 22 47 9 69 -33z m1439 -39 c3 -6 7 -29 7 -51 0 -33 -6 -47 -29 -71
-29 -29 -31 -29 -60 -15 -36 19 -47 32 -61 75 -11 31 -10 33 15 43 14 5 27 8
28 7 2 -2 12 -18 22 -36 l20 -33 11 28 c5 15 13 36 16 46 6 19 21 23 31 7z
m-495 -81 c0 -17 -99 -249 -122 -287 -26 -43 -112 -92 -160 -92 -34 0 -38 3
-40 28 -5 85 12 116 77 142 74 30 128 79 160 147 15 32 32 61 39 65 17 12 46
9 46 -3z m3091 -152 c-10 -9 -11 -8 -5 6 3 10 9 15 12 12 3 -3 0 -11 -7 -18z
m-2808 -11 c48 -36 100 -48 185 -44 l77 3 9 -36 c21 -84 -28 -169 -99 -169
-45 0 -109 32 -132 66 -21 33 -83 175 -83 191 0 18 7 16 43 -11z m-3309 -66
c-6 -6 -10 -3 -10 10 0 13 4 16 10 10 7 -7 7 -13 0 -20z m321 -268 c-3 -3 -11
0 -18 7 -9 10 -8 11 6 5 10 -3 15 -9 12 -12z m100 -102 c3 -5 1 -10 -4 -10 -6
0 -11 5 -11 10 0 6 2 10 4 10 3 0 8 -4 11 -10z m5185 -80 c0 -5 -5 -10 -11
-10 -5 0 -7 5 -4 10 3 6 8 10 11 10 2 0 4 -4 4 -10z m-4889 -187 c13 -16 12
-17 -3 -4 -17 13 -22 21 -14 21 2 0 10 -8 17 -17z m80 -70 c13 -16 12 -17 -3
-4 -17 13 -22 21 -14 21 2 0 10 -8 17 -17z m685 -399 c18 -14 18 -14 -6 -3
-31 14 -36 19 -24 19 6 0 19 -7 30 -16z"/>
<path d="M4600 8701 c0 -24 8 -48 21 -65 23 -29 49 -35 49 -10 0 21 -50 114
-62 114 -4 0 -8 -17 -8 -39z"/>
<path d="M3339 7216 c-55 -19 -177 -116 -275 -219 -172 -180 -380 -507 -443
-695 -22 -65 -27 -117 -12 -126 5 -3 49 74 98 172 103 206 216 388 302 487 33
39 72 86 85 105 25 38 115 120 229 209 37 29 67 57 67 61 0 16 -15 18 -51 6z"/>
<path d="M3945 5448 c-82 -16 -127 -18 -245 -14 -80 2 -168 10 -197 17 -34 8
-60 9 -73 3 -41 -18 1 -42 155 -90 l150 -46 100 9 c183 15 274 8 354 -26 54
-23 83 -29 119 -27 49 4 132 33 132 46 0 17 -44 62 -79 80 -57 28 -189 62
-256 66 -33 1 -105 -7 -160 -18z"/>
<path d="M5464 5435 c-78 -17 -264 -74 -264 -81 0 -16 57 -83 67 -79 7 2 15 0
18 -5 10 -16 48 -11 83 10 18 11 40 20 48 20 9 0 18 9 21 21 4 14 10 18 22 12
9 -4 41 -7 71 -6 30 0 150 1 267 1 l212 1 15 30 c9 16 16 32 16 35 0 18 -299
56 -432 55 -46 0 -110 -7 -144 -14z"/>
<path d="M4399 4167 c-57 -38 -76 -106 -45 -166 27 -52 115 -68 170 -31 l30
19 24 -37 c63 -95 111 -121 217 -122 121 0 160 20 235 118 l25 33 43 -22 c37
-19 48 -20 81 -11 73 22 105 89 71 152 -14 26 -17 24 -25 -20 -8 -45 -18 -51
-90 -48 -51 2 -67 -2 -104 -26 -51 -32 -131 -62 -194 -71 -87 -13 -212 35
-270 105 -17 19 -27 26 -27 17 0 -9 -16 -25 -36 -38 l-37 -22 -18 24 c-34 44
-41 89 -20 131 21 44 17 46 -30 15z"/>
<path d="M5290 3972 c0 -73 77 -172 152 -198 l32 -10 -49 -34 c-62 -43 -166
-85 -247 -101 -138 -27 -630 -11 -794 26 -66 15 -156 53 -189 80 -20 16 -19
17 16 48 35 30 99 121 99 140 0 4 -26 -10 -57 -33 -63 -45 -176 -85 -272 -96
-34 -3 -64 -11 -67 -16 -11 -17 -5 -137 11 -204 14 -63 91 -242 99 -233 2 2
-2 36 -10 74 -14 75 -18 186 -8 248 6 34 9 37 41 37 20 0 83 -21 147 -49 61
-27 131 -55 156 -62 32 -9 67 -33 120 -83 110 -101 154 -119 317 -124 144 -5
232 7 296 39 21 11 71 51 111 89 48 46 100 83 152 109 43 22 107 63 141 91 34
27 64 50 67 50 12 0 35 -59 45 -116 9 -48 8 -86 -4 -174 -8 -63 -13 -116 -10
-118 8 -8 66 107 87 173 27 86 31 233 8 280 -15 29 -18 30 -105 36 -113 8
-166 32 -234 104 -49 51 -51 53 -51 27z m-537 -454 c102 -11 272 -2 345 18 13
4 22 2 22 -4 0 -19 -114 -36 -250 -36 -138 -1 -280 18 -280 36 0 6 11 8 28 4
15 -3 75 -11 135 -18z"/>
<path d="M4480 3350 c0 -22 34 -90 63 -129 33 -43 60 -62 121 -81 l49 -16 -45
-27 c-24 -14 -50 -32 -57 -40 -10 -13 -5 -13 31 0 24 9 90 18 148 20 119 6
199 -9 311 -56 38 -16 69 -26 69 -22 0 15 -72 91 -107 112 l-37 23 41 13 c72
24 154 109 182 188 l11 30 -30 -33 c-39 -42 -114 -90 -164 -103 -108 -29 -320
-28 -416 2 -54 17 -127 67 -149 102 -11 18 -21 25 -21 17z"/>
<path d="M4765 2807 l-60 -21 65 -7 c36 -4 94 -19 129 -34 35 -14 64 -25 66
-23 1 2 14 24 29 49 l26 46 -37 7 c-71 11 -157 5 -218 -17z"/>
<path d="M3822 4971 c-56 -19 -78 -35 -128 -91 -28 -31 -38 -35 -93 -40 -59
-5 -61 -6 -48 -24 11 -15 30 -20 95 -24 73 -4 82 -3 88 14 12 34 54 84 84 99
41 21 53 20 40 -4 -25 -48 -4 -123 41 -147 83 -42 199 6 199 83 0 18 4 33 9
33 12 0 94 -89 127 -140 l29 -44 3 31 c8 85 -125 218 -258 257 -69 21 -122 20
-188 -3z m197 -100 c18 -11 5 -51 -17 -51 -29 0 -40 13 -31 38 9 23 25 28 48
13z"/>
<path d="M5583 4965 c-62 -19 -123 -58 -173 -109 -47 -48 -58 -68 -59 -101 -1
-15 11 -8 52 31 47 46 108 94 119 94 3 0 10 -17 16 -39 24 -77 94 -116 171
-93 47 15 80 46 88 83 7 37 20 28 70 -53 41 -67 41 -67 135 -24 l53 24 -37 1
c-33 1 -42 7 -77 55 -60 80 -100 115 -155 131 -60 18 -146 18 -203 0z m113
-91 c16 -4 20 -11 16 -30 -4 -25 -26 -31 -51 -15 -8 5 -11 16 -6 30 7 23 9 24
41 15z"/>
<path d="M3726 8504 c-23 -23 -20 -30 4 -9 11 10 20 20 20 22 0 7 -9 2 -24
-13z"/>
<path d="M5826 7863 c-6 -14 -5 -15 5 -6 7 7 10 15 7 18 -3 3 -9 -2 -12 -12z"/>
<path d="M6230 7561 c0 -5 5 -13 10 -16 6 -3 10 -2 10 4 0 5 -4 13 -10 16 -5
3 -10 2 -10 -4z"/>
<path d="M6570 7180 c0 -5 5 -10 11 -10 5 0 7 5 4 10 -3 6 -8 10 -11 10 -2 0
-4 -4 -4 -10z"/>
<path d="M6590 7156 c0 -2 8 -10 18 -17 15 -13 16 -12 3 4 -13 16 -21 21 -21
13z"/>
<path d="M2256 5107 c3 -10 9 -15 12 -12 3 3 0 11 -7 18 -10 9 -11 8 -5 -6z"/>
<path d="M6755 4941 c-3 -5 -2 -12 3 -15 5 -3 9 1 9 9 0 17 -3 19 -12 6z"/>
<path d="M6509 4593 c-13 -16 -12 -17 4 -4 9 7 17 15 17 17 0 8 -8 3 -21 -13z"/>
<path d="M2516 4308 c3 -7 17 -22 32 -33 l27 -20 -25 32 c-25 32 -44 43 -34
21z"/>
<path d="M6676 2921 c-3 -5 1 -11 9 -15 8 -3 15 -1 15 4 0 13 -18 22 -24 11z"/>
<path d="M7230 2610 c-8 -5 -12 -12 -9 -15 4 -3 12 1 19 10 14 17 11 19 -10 5z"/>
<path d="M1047 2217 c-7 -20 18 -43 28 -27 4 7 1 19 -7 27 -14 13 -16 13 -21
0z"/>
<path d="M3245 174 c32 -12 299 -74 307 -72 11 4 -289 79 -307 77 -7 0 -7 -2
0 -5z"/>
<path d="M3628 83 c7 -3 16 -2 19 1 4 3 -2 6 -13 5 -11 0 -14 -3 -6 -6z"/>
</g>
</svg>
